<?xml version="1.0" encoding="iso-8859-1"?>
<!-- Generator: Adobe Illustrator 19.0.0, SVG Export Plug-In . SVG Version: 6.00 Build 0)  -->
<svg version="1.1" id="Capa_1" xmlns="http://www.w3.org/2000/svg" xmlns:xlink="http://www.w3.org/1999/xlink" x="0px" y="0px"
	 viewBox="0 0 512 512" style="enable-background:new 0 0 512 512;" xml:space="preserve">
<g>
	<path style="fill:#F45151;" d="M115.055,128.522c-4.265,0-7.722-3.457-7.722-7.722V92.679c0-27.228,22.152-49.38,49.38-49.38
		c4.265,0,7.722,3.457,7.722,7.722s-3.457,7.722-7.722,7.722c-18.712,0-33.936,15.224-33.936,33.936V120.8
		C122.777,125.065,119.319,128.522,115.055,128.522z"/>
	<path style="fill:#F45151;" d="M396.941,128.522c-4.265,0-7.722-3.457-7.722-7.722V92.679c0-18.712-15.224-33.936-33.936-33.936
		c-4.265,0-7.722-3.457-7.722-7.722s3.457-7.722,7.722-7.722c27.228,0,49.38,22.152,49.38,49.38V120.8
		C404.663,125.065,401.206,128.522,396.941,128.522z"/>
</g>
<path style="fill:#E9EFF4;" d="M340.008,75.439h-168.02c-8.436,0-15.276-6.839-15.276-15.276V41.881
	c0-8.437,6.839-15.276,15.276-15.276h168.02c8.437,0,15.276,6.839,15.276,15.276v18.282
	C355.284,68.599,348.445,75.439,340.008,75.439z"/>
<path style="fill:#D3DCE2;" d="M355.284,42.407v17.23c0,8.729-7.074,15.803-15.803,15.803h-26.89
	c8.729,0,15.803-7.074,15.803-15.803v-17.23c0-8.729-7.074-15.803-15.803-15.803h26.89C348.21,26.604,355.284,33.678,355.284,42.407
	z"/>
<path style="fill:#E9EFF4;" d="M482.81,485.393H29.186C13.067,485.393,0,472.326,0,456.207V151.242
	c0-16.119,13.067-29.186,29.186-29.186H482.81c16.119,0,29.186,13.067,29.186,29.186v304.965
	C511.996,472.326,498.929,485.393,482.81,485.393z"/>
<path style="fill:#D3DCE2;" d="M512,152.241v302.966c0,16.672-13.517,30.189-30.189,30.189H433.72
	c16.672,0,30.189-13.517,30.189-30.189V152.241c0-16.672-13.517-30.189-30.189-30.189h48.091
	C498.483,122.052,512,135.57,512,152.241z"/>
<path style="fill:#F45151;" d="M319.254,276.835h-25.13c-6.205,0-11.236-5.03-11.236-11.236v-25.13
	c0-6.205-5.03-11.236-11.236-11.236h-31.308c-6.205,0-11.236,5.03-11.236,11.236v25.13c0,6.205-5.03,11.236-11.236,11.236h-25.13
	c-6.205,0-11.236,5.03-11.236,11.236v31.309c0,6.205,5.03,11.236,11.236,11.236h25.13c6.205,0,11.236,5.03,11.236,11.236v25.13
	c0,6.205,5.03,11.236,11.236,11.236h31.308c6.205,0,11.236-5.03,11.236-11.236v-25.13c0-6.205,5.03-11.236,11.236-11.236h25.13
	c6.205,0,11.236-5.03,11.236-11.236v-31.31C330.489,281.865,325.459,276.835,319.254,276.835z"/>
<path style="fill:#F42F2F;" d="M330.493,288.066v31.316c0,6.205-5.037,11.232-11.242,11.232H294.12
	c-6.205,0-11.232,5.026-11.232,11.232v25.132c0,6.205-5.026,11.242-11.232,11.242H240.34c-6.205,0-11.232-5.037-11.232-11.242
	v-4.623h28.069c6.205,0,11.232-5.026,11.232-11.232v-25.132c0-6.205,5.026-11.232,11.232-11.232h25.132
	c6.205,0,11.242-5.037,11.242-11.242v-26.683h3.237C325.457,276.835,330.493,281.861,330.493,288.066z"/>
<g>
</g>
<g>
</g>
<g>
</g>
<g>
</g>
<g>
</g>
<g>
</g>
<g>
</g>
<g>
</g>
<g>
</g>
<g>
</g>
<g>
</g>
<g>
</g>
<g>
</g>
<g>
</g>
<g>
</g>
</svg>
