<?xml version="1.0"?>
<svg xmlns="http://www.w3.org/2000/svg" id="line" width="512" height="512" viewBox="0 0 64 64"><path d="M52,21a13.135,13.135,0,0,0-10,4.745A13.135,13.135,0,0,0,32,21c-6.168,0-11,5.71-11,13,0,5.212,2.667,15.375,20.53,24.883a1,1,0,0,0,.94,0C60.333,49.375,63,39.212,63,34,63,26.71,58.168,21,52,21Zm4,18H46.618L42.9,46.447a1,1,0,0,1-1.881-.282l-1.5-8.967L38.9,38.447A1,1,0,0,1,38,39H28a1,1,0,0,1,0-2h9.382L39.1,33.553a1,1,0,0,1,1.881.282l1.5,8.967,2.624-5.249A1,1,0,0,1,46,37H56A1,1,0,0,1,56,39Z" style="fill:#c4a2fc"/><path d="M47,25.1V16a7,7,0,0,0-14,0V40a9,9,0,0,1-18,0V30.949A13.008,13.008,0,0,0,27,18V8a5.009,5.009,0,0,0-4-4.9V2a1,1,0,0,0-2,0V6a1,1,0,0,0,2,0V5.184A3,3,0,0,1,25,8V18A11,11,0,0,1,3,18V8A3,3,0,0,1,5,5.184V6A1,1,0,0,0,7,6V2A1,1,0,0,0,5,2V3.1A5.009,5.009,0,0,0,1,8V18A13.008,13.008,0,0,0,13,30.949V40a11,11,0,0,0,22,0V16a5,5,0,0,1,10,0v9.1a5,5,0,1,0,2,0ZM46,33a3,3,0,1,1,3-3A3,3,0,0,1,46,33Z" style="fill:#151a6a"/></svg>
